<?xml version="1.0" encoding="UTF-8" standalone="no"?>
<!DOCTYPE svg PUBLIC "-//W3C//DTD SVG 1.1//EN" "http://www.w3.org/Graphics/SVG/1.1/DTD/svg11.dtd">
<svg xmlns="http://www.w3.org/2000/svg" version="1.1" viewBox="0.00 0.00 1045.00 630.00">
<path fill="#1e252d" d="
  M 366.97 4.99
  Q 367.08 4.85 367.24 4.78
  Q 367.52 4.67 367.81 4.74
  Q 368.90 5.00 369.52 4.11
  Q 369.83 3.67 370.35 3.81
  Q 371.53 4.14 372.17 3.23
  A 0.88 0.87 22.0 0 1 373.01 2.88
  C 375.50 3.24 377.22 1.91 379.67 1.98
  Q 383.27 2.07 386.73 1.97
  A 2.29 2.26 58.5 0 1 387.86 2.25
  Q 389.65 3.27 391.84 2.88
  Q 392.53 2.76 392.94 3.33
  Q 393.50 4.09 394.44 3.86
  Q 394.95 3.73 395.37 4.04
  Q 396.94 5.21 397.68 5.33
  Q 400.11 5.72 402.10 7.16
  Q 403.73 8.34 405.69 9.57
  Q 407.58 10.77 408.99 12.20
  C 410.81 14.04 413.51 16.13 414.78 18.33
  Q 415.38 19.39 416.00 20.44
  Q 420.97 28.82 421.57 34.78
  Q 421.93 38.43 421.92 43.20
  Q 421.90 47.49 420.61 51.45
  Q 414.33 70.72 394.10 76.68
  Q 393.01 77.00 391.88 77.00
  C 390.97 76.99 390.17 77.54 389.25 77.64
  Q 379.90 78.59 372.23 75.96
  Q 357.51 70.91 349.61 57.93
  Q 344.85 50.13 344.18 38.15
  Q 344.08 36.54 344.60 34.92
  C 345.19 33.08 344.74 31.43 345.66 29.67
  Q 345.96 29.09 345.92 28.45
  Q 345.87 27.65 346.47 27.16
  Q 347.16 26.58 346.87 25.74
  Q 346.66 25.14 347.13 24.72
  Q 347.42 24.47 347.58 24.13
  L 349.78 19.51
  Q 350.03 18.97 350.51 18.63
  Q 351.26 18.10 351.42 17.21
  Q 351.51 16.68 351.90 16.30
  L 358.67 9.66
  A 1.34 1.29 -74.3 0 1 359.20 9.35
  Q 360.44 8.95 361.18 7.85
  Q 361.45 7.44 361.94 7.53
  Q 362.33 7.61 362.59 7.32
  Q 362.97 6.93 363.45 6.71
  Q 364.87 6.07 366.44 5.39
  Q 366.76 5.26 366.97 4.99
  Z"
/>
<path fill="#1e252d" d="
  M 677.10 109.76
  Q 674.16 108.38 671.07 106.80
  Q 669.88 106.19 669.01 105.20
  C 668.02 104.05 666.77 103.93 665.73 102.84
  Q 664.12 101.15 662.39 99.50
  Q 660.85 98.03 659.55 95.97
  Q 656.04 90.40 654.40 85.89
  Q 650.19 74.32 653.22 63.74
  Q 654.35 59.81 657.89 53.63
  Q 659.42 50.95 661.35 49.10
  Q 663.53 47.00 665.51 44.99
  Q 665.89 44.60 666.42 44.47
  Q 667.27 44.27 667.75 43.55
  Q 668.07 43.07 668.60 42.85
  Q 670.16 42.20 671.85 41.27
  Q 674.56 39.78 677.06 39.00
  Q 677.86 38.75 678.57 38.38
  Q 679.48 37.91 680.51 38.12
  Q 681.04 38.23 681.55 38.00
  Q 681.83 37.88 682.04 37.64
  Q 682.40 37.21 682.95 37.21
  L 695.06 37.21
  Q 695.61 37.21 696.06 37.55
  Q 697.22 38.42 698.77 38.06
  Q 699.35 37.92 699.73 38.37
  L 699.92 38.58
  Q 700.14 38.84 700.48 38.91
  Q 703.85 39.62 706.97 41.19
  A 28.21 22.34 42.2 0 1 710.38 43.16
  Q 711.96 44.20 712.55 44.45
  Q 713.49 44.85 714.22 45.61
  Q 718.14 49.65 722.06 53.41
  Q 722.45 53.79 722.51 54.33
  C 722.62 55.38 723.67 55.79 724.17 56.75
  Q 729.76 67.47 729.80 75.63
  Q 729.87 88.95 723.18 97.99
  Q 721.21 100.65 717.35 104.33
  Q 714.84 106.72 712.05 108.00
  Q 708.97 109.40 705.90 110.98
  Q 705.44 111.22 704.92 111.18
  Q 704.07 111.13 703.53 111.73
  Q 703.00 112.30 702.23 112.18
  Q 700.30 111.87 698.89 112.72
  A 2.30 2.29 29.5 0 1 697.72 113.04
  L 687.50 113.04
  A 1.78 1.76 -26.4 0 1 686.44 112.69
  Q 685.35 111.88 684.00 112.19
  A 0.99 0.97 59.3 0 1 683.13 111.96
  Q 681.93 110.90 680.26 111.26
  Q 679.75 111.38 679.32 111.06
  Q 678.34 110.34 677.10 109.76
  Z"
/>
<path fill="#1e252d" d="
  M 719.10 204.04
  Q 720.13 204.80 719.76 206.10
  A 0.64 0.63 -66.3 0 0 720.03 206.80
  Q 720.94 207.40 720.75 208.55
  Q 720.69 208.95 720.88 209.29
  Q 720.92 209.38 721.02 209.43
  A 0.52 0.50 6.8 0 1 721.26 209.72
  Q 729.80 237.37 730.79 260.51
  C 731.35 273.49 731.30 287.57 729.13 301.15
  Q 726.78 315.80 722.79 329.65
  C 722.41 330.98 721.78 332.22 721.59 333.60
  Q 721.47 334.47 721.16 335.28
  Q 718.76 341.57 716.43 347.74
  Q 715.76 349.53 714.83 351.24
  Q 714.13 352.52 713.77 353.81
  Q 713.41 355.06 712.87 356.20
  Q 710.03 362.23 706.78 368.23
  Q 706.50 368.74 706.05 369.12
  Q 705.61 369.51 705.34 370.11
  Q 704.04 373.10 702.44 375.72
  Q 694.78 388.34 685.77 398.78
  C 685.48 399.12 685.43 399.38 685.28 399.78
  Q 685.19 400.01 685.02 400.17
  Q 682.01 403.07 679.33 405.95
  Q 679.07 406.24 678.99 406.63
  Q 678.89 407.12 678.55 407.48
  Q 674.08 412.13 669.89 416.10
  C 669.33 416.63 668.62 416.59 668.04 417.17
  Q 665.35 419.87 662.68 422.47
  Q 662.45 422.70 662.13 422.76
  Q 661.98 422.79 661.83 422.78
  Q 661.56 422.78 661.38 422.97
  Q 659.63 424.83 657.79 426.31
  Q 651.20 431.61 644.90 435.75
  Q 644.22 436.20 643.50 436.54
  Q 642.72 436.91 642.21 437.59
  Q 641.91 437.99 641.42 438.08
  Q 640.70 438.23 640.12 438.66
  Q 639.65 439.01 639.07 438.98
  Q 638.17 438.92 637.62 439.60
  Q 637.30 440.01 636.91 439.66
  Q 636.05 438.87 634.85 439.00
  Q 634.29 439.07 633.97 438.60
  Q 633.41 437.74 632.39 438.09
  Q 631.81 438.29 631.41 437.82
  Q 630.64 436.90 629.46 437.22
  A 0.70 0.69 67.1 0 1 628.69 436.90
  Q 628.16 436.00 627.12 436.32
  Q 626.47 436.51 626.07 435.98
  Q 625.41 435.11 624.37 435.44
  Q 623.65 435.67 623.20 435.07
  Q 622.58 434.26 621.60 434.50
  Q 620.97 434.66 620.53 434.17
  Q 619.87 433.44 618.85 433.63
  Q 618.22 433.75 617.87 433.22
  Q 617.73 433.00 617.50 432.87
  Q 617.01 432.58 616.46 432.75
  Q 615.70 432.98 615.19 432.41
  Q 614.91 432.08 614.51 431.91
  Q 612.50 430.99 610.33 430.40
  Q 607.66 429.67 605.42 428.27
  Q 604.96 427.98 604.46 428.18
  Q 604.25 428.26 604.04 428.22
  A 0.95 0.90 -19.9 0 1 603.63 428.04
  Q 602.20 426.94 600.12 426.36
  Q 598.82 425.99 597.42 425.30
  Q 596.45 424.82 594.84 424.32
  Q 592.63 423.63 590.71 422.28
  Q 590.14 421.87 589.46 421.89
  Q 588.92 421.91 588.44 421.67
  Q 585.21 420.03 582.06 418.42
  C 581.70 418.23 581.48 418.25 581.09 418.21
  A 0.36 0.35 -4.4 0 1 580.77 417.94
  Q 580.32 416.06 581.53 415.10
  Q 581.86 414.85 582.27 414.80
  Q 584.40 414.55 586.19 413.14
  Q 586.74 412.71 587.42 412.82
  Q 587.95 412.90 588.43 412.66
  L 594.67 409.42
  Q 595.12 409.18 595.62 409.27
  Q 596.32 409.40 596.83 408.95
  Q 597.03 408.77 597.27 408.65
  L 602.15 406.19
  Q 602.61 405.96 602.86 405.51
  Q 603.24 404.83 604.02 404.84
  Q 604.41 404.85 604.72 404.61
  Q 604.91 404.47 604.97 404.27
  A 0.40 0.39 -87.0 0 1 605.25 404.01
  Q 607.17 403.50 608.90 402.21
  Q 610.11 401.31 611.33 400.64
  Q 612.69 399.88 613.87 399.11
  Q 617.32 396.85 620.70 394.68
  C 621.97 393.86 622.87 392.27 624.34 392.01
  Q 624.86 391.92 625.17 391.50
  Q 626.11 390.21 627.45 389.50
  C 629.55 388.38 631.25 386.16 632.99 384.41
  A 1.56 1.55 19.4 0 1 633.90 383.98
  Q 634.21 383.95 634.48 383.82
  Q 634.75 383.69 634.96 383.47
  Q 641.45 376.84 647.86 370.59
  Q 648.22 370.23 648.36 369.74
  Q 648.42 369.53 648.47 369.31
  Q 648.59 368.79 648.97 368.42
  L 652.58 364.92
  Q 652.94 364.57 653.01 364.07
  C 653.18 362.76 655.23 361.86 655.74 360.26
  Q 655.90 359.79 656.25 359.42
  L 657.81 357.81
  Q 658.16 357.45 658.29 356.95
  Q 658.56 355.82 659.63 355.20
  A 1.02 1.01 -9.4 0 0 660.12 354.52
  L 660.24 353.92
  Q 660.37 353.32 660.89 352.97
  Q 661.80 352.36 662.01 351.33
  Q 662.12 350.78 662.57 350.43
  L 663.18 349.96
  Q 663.63 349.61 663.71 349.04
  Q 663.81 348.36 664.34 347.86
  Q 664.75 347.48 664.75 346.93
  Q 664.75 345.95 665.68 345.49
  Q 666.17 345.24 666.35 344.73
  Q 667.27 342.12 668.82 339.32
  Q 671.70 334.12 674.58 328.21
  Q 674.80 327.75 674.59 327.29
  Q 674.28 326.61 674.97 326.31
  A 0.94 0.93 -17.1 0 0 675.52 325.29
  Q 675.40 324.61 676.02 324.34
  Q 676.59 324.09 676.49 323.48
  L 676.33 322.55
  A 0.88 0.87 -17.1 0 1 676.83 321.61
  Q 677.73 321.21 677.30 320.29
  A 1.04 1.04 0.0 0 1 677.68 318.99
  Q 678.57 318.42 678.16 317.38
  A 0.88 0.88 0.0 0 1 678.51 316.32
  L 678.81 316.13
  Q 679.32 315.81 679.12 315.24
  Q 678.75 314.16 679.63 313.49
  Q 680.02 313.19 680.02 312.70
  L 680.03 311.85
  Q 680.04 311.36 680.32 310.97
  Q 681.12 309.88 680.98 308.48
  A 1.54 1.50 56.7 0 1 681.15 307.60
  Q 681.48 306.98 681.66 306.23
  Q 693.19 258.83 675.32 212.15
  C 674.82 210.84 673.98 209.54 673.67 208.17
  Q 673.47 207.28 673.02 206.47
  Q 671.93 204.50 671.26 202.60
  Q 670.56 200.66 669.64 198.86
  Q 662.10 184.08 652.79 171.42
  Q 649.20 166.53 645.29 162.62
  Q 644.99 162.32 645.00 161.90
  Q 645.01 161.56 644.77 161.33
  Q 638.01 154.55 631.29 147.87
  C 630.91 147.49 630.65 147.40 630.15 147.26
  Q 629.68 147.14 629.34 146.79
  L 625.95 143.32
  A 1.37 1.35 69.8 0 0 625.08 142.91
  C 624.01 142.82 622.56 140.74 621.38 140.16
  C 620.02 139.49 619.38 138.43 618.12 137.63
  Q 612.69 134.18 607.22 130.34
  Q 607.05 130.22 606.85 130.25
  Q 606.40 130.32 606.16 129.93
  Q 605.72 129.19 604.89 129.23
  Q 604.36 129.25 604.03 128.83
  Q 603.84 128.58 603.63 128.31
  Q 603.43 128.05 603.13 127.90
  Q 594.27 123.41 585.43 119.03
  Q 584.35 118.50 583.12 118.25
  Q 581.75 117.97 580.57 116.96
  Q 580.12 116.57 579.50 116.71
  Q 578.99 116.82 578.55 116.55
  Q 575.45 114.72 571.84 113.98
  Q 571.31 113.87 570.89 113.52
  Q 570.08 112.85 569.05 113.05
  Q 568.43 113.17 568.06 112.65
  Q 567.41 111.74 566.34 112.14
  Q 565.85 112.32 565.53 111.91
  C 564.59 110.69 563.69 111.71 562.75 110.90
  Q 562.56 110.73 562.32 110.66
  Q 510.55 95.11 457.99 111.70
  Q 453.29 113.18 449.95 114.75
  A 1.28 1.28 0.0 0 1 449.22 114.85
  Q 448.39 114.72 447.93 115.39
  Q 447.65 115.79 447.16 115.83
  L 446.76 115.87
  Q 446.25 115.91 445.94 116.32
  Q 445.54 116.84 444.83 116.75
  Q 444.21 116.67 443.65 116.94
  L 423.27 126.65
  Q 422.83 126.86 422.53 127.24
  Q 421.96 127.96 421.07 128.37
  Q 418.03 129.77 415.34 131.87
  C 414.12 132.82 412.76 133.04 411.84 134.35
  Q 411.54 134.79 411.01 134.75
  Q 410.26 134.70 409.82 135.31
  Q 408.56 137.03 406.84 137.67
  Q 406.32 137.86 405.98 138.31
  Q 404.78 139.92 403.23 140.78
  Q 401.86 141.54 400.72 142.68
  Q 391.73 151.69 382.74 160.69
  C 382.25 161.18 382.10 161.61 381.86 162.25
  Q 381.69 162.69 381.33 162.99
  C 379.67 164.38 378.77 166.04 377.49 167.66
  Q 370.92 175.96 365.69 185.61
  C 365.19 186.53 364.49 187.06 363.99 188.00
  Q 360.02 195.49 358.99 198.41
  Q 357.81 201.77 356.34 204.29
  C 355.94 204.99 355.91 205.22 355.87 206.04
  Q 355.85 206.53 355.51 206.87
  Q 354.90 207.48 354.99 208.39
  Q 355.06 208.99 354.70 209.47
  L 354.28 210.04
  A 1.37 1.37 0.0 0 0 354.04 211.08
  Q 354.18 211.86 353.62 212.38
  Q 353.01 212.94 353.12 213.75
  C 353.24 214.71 352.67 215.09 352.42 215.92
  C 343.07 245.57 342.18 279.41 351.19 309.46
  C 352.29 313.13 352.89 316.82 354.72 320.22
  Q 354.96 320.67 354.98 321.18
  L 355.00 321.69
  Q 355.01 322.14 355.34 322.44
  Q 356.04 323.07 355.96 323.98
  Q 355.91 324.46 356.14 324.88
  L 357.57 327.58
  Q 357.82 328.06 357.70 328.59
  Q 357.57 329.20 357.99 329.61
  Q 358.26 329.86 358.42 330.20
  L 361.07 335.72
  Q 361.29 336.16 361.22 336.65
  Q 361.15 337.15 361.48 337.55
  Q 361.82 337.95 362.02 338.42
  Q 363.07 340.80 364.35 343.17
  A 1.39 1.36 1.1 0 0 364.90 343.73
  Q 365.50 344.05 365.66 344.67
  Q 365.81 345.25 366.10 345.75
  Q 367.32 347.93 368.42 350.26
  Q 368.99 351.45 369.78 352.44
  Q 370.40 353.22 370.87 354.37
  Q 371.25 355.28 371.85 356.07
  Q 374.35 359.38 376.57 363.05
  C 377.51 364.60 378.82 365.58 379.65 367.21
  Q 381.41 370.64 384.52 373.26
  Q 384.79 373.49 384.81 373.84
  L 384.82 374.20
  Q 384.84 374.54 385.08 374.78
  Q 387.88 377.55 390.74 380.48
  Q 391.06 380.81 391.04 381.27
  A 0.79 0.75 25.1 0 0 391.27 381.86
  L 400.09 390.71
  Q 400.47 391.10 401.00 391.05
  Q 401.31 391.03 401.54 391.25
  Q 404.46 394.06 407.22 396.95
  Q 407.48 397.22 407.84 397.33
  Q 408.02 397.38 408.21 397.40
  A 1.04 1.00 -18.5 0 1 408.82 397.69
  L 411.91 400.72
  Q 412.25 401.05 412.72 401.15
  L 413.21 401.26
  A 1.32 1.32 0.0 0 1 414.04 401.82
  Q 415.11 403.41 416.75 403.98
  A 1.66 1.66 0.0 0 1 417.64 404.71
  Q 418.11 405.49 418.97 405.55
  Q 419.52 405.59 419.90 405.98
  L 420.92 407.01
  Q 421.33 407.42 421.91 407.49
  Q 422.74 407.58 423.22 408.29
  Q 423.50 408.69 423.94 408.89
  Q 424.90 409.32 425.69 409.99
  Q 427.28 411.34 429.39 412.04
  C 430.17 412.30 430.83 413.32 431.75 413.77
  Q 441.52 418.63 451.11 423.42
  Q 451.65 423.69 452.29 423.71
  Q 452.78 423.73 453.20 423.97
  C 454.28 424.58 455.13 425.18 456.39 425.44
  Q 458.28 425.84 459.89 426.94
  Q 460.33 427.24 460.86 427.21
  Q 461.90 427.14 462.57 427.89
  Q 462.96 428.34 463.53 428.16
  Q 464.44 427.87 465.02 428.62
  Q 465.48 429.20 466.20 429.07
  Q 467.27 428.87 468.00 429.63
  Q 468.41 430.05 469.00 429.98
  Q 469.93 429.86 470.63 430.52
  Q 471.05 430.92 471.63 430.91
  L 472.19 430.90
  Q 472.75 430.89 473.13 431.30
  Q 473.88 432.08 474.90 431.75
  Q 475.45 431.58 475.80 432.04
  L 476.11 432.45
  Q 476.46 432.91 477.04 432.78
  Q 478.68 432.40 479.83 433.31
  Q 480.24 433.64 480.76 433.58
  Q 481.66 433.47 482.32 434.11
  Q 482.73 434.51 483.30 434.51
  L 485.04 434.50
  Q 485.55 434.50 485.88 434.89
  Q 486.52 435.65 487.48 435.43
  Q 488.14 435.27 488.58 435.80
  Q 489.16 436.49 490.00 436.27
  A 1.29 1.28 66.6 0 1 491.40 436.83
  Q 492.03 437.85 493.16 438.06
  Q 493.75 438.17 494.10 438.66
  Q 494.87 439.75 496.08 440.04
  Q 496.57 440.16 496.92 440.52
  Q 500.79 444.49 504.64 448.30
  C 505.41 449.07 506.26 448.91 506.94 449.62
  Q 508.64 451.37 510.21 453.03
  Q 510.57 453.41 511.08 453.41
  Q 511.74 453.40 512.14 453.94
  Q 513.23 455.44 514.74 456.14
  Q 515.82 456.64 516.65 457.52
  Q 518.44 459.41 520.92 460.90
  Q 523.19 462.26 525.23 463.88
  Q 528.39 466.39 531.00 467.84
  Q 532.13 468.48 532.73 469.08
  Q 533.15 469.51 533.71 469.71
  Q 535.37 470.29 536.80 471.46
  Q 538.37 472.75 540.32 473.35
  Q 540.76 473.48 541.01 473.87
  Q 541.39 474.46 542.02 474.76
  Q 544.06 475.72 546.03 476.79
  Q 547.40 477.54 548.67 478.48
  Q 550.07 479.52 551.62 479.83
  A 1.15 1.15 0.0 0 1 552.55 480.93
  C 552.57 481.69 551.96 482.29 551.22 482.31
  Q 549.27 482.36 547.40 482.30
  Q 546.84 482.28 546.49 482.71
  L 546.29 482.96
  A 0.80 0.78 -69.8 0 1 545.68 483.25
  L 540.05 483.25
  Q 539.54 483.25 539.17 483.60
  L 538.88 483.87
  Q 538.59 484.14 538.20 484.15
  Q 522.13 484.33 505.98 483.99
  Q 504.24 483.95 501.98 483.69
  Q 477.89 480.88 459.26 475.14
  Q 456.58 474.32 455.00 474.11
  Q 454.52 474.04 454.12 473.75
  Q 453.47 473.25 452.62 473.28
  Q 452.08 473.30 451.65 472.95
  L 451.32 472.69
  A 0.90 0.90 0.0 0 0 450.64 472.50
  Q 449.76 472.61 449.11 472.08
  A 2.11 2.09 69.7 0 0 448.21 471.66
  Q 444.42 470.90 441.23 469.03
  Q 440.79 468.78 440.29 468.85
  L 440.00 468.89
  Q 439.45 468.97 439.13 468.52
  Q 438.63 467.80 437.69 467.88
  Q 437.08 467.94 436.53 467.66
  Q 434.49 466.58 432.46 465.47
  C 431.88 465.16 431.55 465.13 430.91 465.24
  A 0.86 0.84 -18.1 0 1 430.00 464.79
  Q 429.68 464.18 429.00 464.29
  A 0.95 0.93 66.1 0 1 428.09 463.93
  Q 427.63 463.33 426.87 463.20
  Q 426.45 463.13 426.11 462.88
  Q 424.83 461.98 423.44 461.72
  Q 422.28 461.50 421.22 460.88
  Q 420.05 460.20 418.81 459.68
  Q 417.38 459.08 416.23 458.25
  Q 414.88 457.27 413.55 456.57
  Q 411.26 455.35 408.82 454.25
  Q 408.10 453.92 407.58 453.29
  Q 407.27 452.90 406.79 452.74
  C 404.79 452.03 403.59 450.79 401.82 449.80
  Q 400.81 449.23 399.83 448.62
  Q 393.17 444.41 385.01 438.31
  Q 379.38 434.10 374.93 429.62
  Q 374.65 429.34 374.27 429.23
  Q 374.07 429.18 373.87 429.14
  Q 373.43 429.06 373.12 428.75
  Q 365.02 420.62 357.12 412.75
  Q 356.89 412.52 356.83 412.20
  Q 356.79 412.03 356.77 411.86
  Q 356.74 411.50 356.47 411.24
  Q 354.54 409.39 352.83 407.43
  Q 342.64 395.74 331.15 377.40
  Q 329.66 375.01 328.49 372.51
  C 328.12 371.72 327.41 371.31 326.98 370.43
  Q 322.34 361.16 317.50 351.34
  Q 317.19 350.70 317.06 349.99
  Q 316.98 349.52 316.77 349.11
  Q 315.10 345.90 313.64 342.06
  Q 289.45 278.05 306.27 211.53
  Q 306.43 210.90 306.79 210.40
  C 307.64 209.24 306.50 208.02 307.74 206.87
  Q 308.10 206.54 308.03 206.06
  Q 307.94 205.48 308.05 204.90
  A 1.00 1.00 0.0 0 1 308.46 204.25
  Q 309.31 203.66 308.96 202.60
  Q 308.76 201.98 309.30 201.61
  Q 310.32 200.92 309.83 199.71
  Q 309.62 199.18 310.13 198.92
  Q 311.19 198.40 310.72 197.26
  Q 310.49 196.72 310.97 196.37
  Q 312.02 195.60 311.62 194.33
  Q 311.46 193.84 311.91 193.60
  Q 312.77 193.12 312.54 192.06
  Q 312.42 191.54 312.68 191.07
  L 314.15 188.43
  Q 314.40 187.98 314.29 187.47
  Q 314.26 187.32 314.27 187.17
  Q 314.27 187.00 314.34 186.85
  Q 315.57 184.51 316.82 182.19
  Q 317.06 181.73 317.03 181.22
  Q 317.02 181.06 317.02 180.91
  Q 317.02 180.75 317.10 180.61
  Q 321.38 172.49 325.18 164.20
  Q 325.77 162.92 327.17 161.12
  Q 328.30 159.66 328.92 157.81
  A 1.41 1.38 84.9 0 1 329.54 157.05
  Q 330.46 156.52 330.62 155.50
  Q 330.70 154.97 331.09 154.58
  Q 332.51 153.20 333.23 150.88
  Q 333.40 150.32 333.87 149.96
  Q 335.59 148.64 336.24 146.89
  Q 336.41 146.41 336.81 146.10
  Q 337.69 145.43 338.03 144.30
  Q 338.21 143.71 338.71 143.35
  Q 340.23 142.27 340.59 140.74
  Q 340.71 140.21 341.14 139.89
  Q 342.91 138.53 343.87 136.90
  C 345.10 134.80 346.89 133.34 348.59 131.72
  Q 348.80 131.51 348.76 131.22
  L 348.71 130.91
  Q 348.67 130.63 348.87 130.44
  Q 357.36 121.97 365.80 113.55
  Q 367.33 112.02 369.02 110.84
  Q 371.06 109.42 372.61 107.51
  Q 373.05 106.98 373.70 106.77
  C 375.22 106.29 376.25 104.76 377.54 103.76
  Q 385.83 97.38 394.98 91.49
  Q 401.17 87.51 406.83 84.87
  C 407.50 84.56 407.98 83.85 408.78 83.46
  Q 414.18 80.78 419.53 78.02
  Q 419.98 77.79 420.48 77.84
  Q 420.77 77.88 421.00 77.77
  Q 424.42 76.17 427.56 74.42
  Q 428.05 74.15 428.59 74.24
  Q 429.61 74.41 430.18 73.61
  Q 430.47 73.20 430.97 73.22
  Q 431.48 73.25 431.85 72.91
  Q 432.22 72.56 432.72 72.44
  Q 436.06 71.66 439.27 69.97
  Q 439.71 69.74 440.20 69.75
  L 440.74 69.75
  A 1.19 1.17 20.2 0 0 441.63 69.35
  Q 442.24 68.66 443.17 68.82
  Q 443.79 68.92 444.24 68.50
  L 444.63 68.15
  Q 445.06 67.75 445.62 67.90
  Q 447.03 68.25 448.03 67.37
  Q 448.49 66.98 449.09 66.99
  C 450.26 67.02 451.17 66.24 452.33 65.93
  Q 468.92 61.53 485.93 59.42
  Q 489.84 58.93 493.59 58.87
  Q 496.18 58.82 498.72 58.46
  C 503.94 57.72 509.42 57.94 514.73 58.02
  C 516.87 58.05 518.66 58.93 520.76 58.87
  Q 525.42 58.73 530.38 59.25
  Q 533.26 59.54 536.32 59.90
  Q 557.05 62.30 576.25 68.01
  Q 576.99 68.23 577.62 68.66
  Q 578.16 69.02 578.80 68.84
  A 0.88 0.86 -32.2 0 1 579.63 69.02
  Q 580.62 69.90 581.97 69.77
  Q 582.50 69.72 582.98 69.96
  L 585.53 71.24
  Q 586.03 71.49 586.59 71.46
  Q 587.40 71.42 587.95 71.98
  Q 588.30 72.34 588.80 72.39
  L 589.81 72.48
  Q 590.43 72.54 590.85 72.99
  Q 591.22 73.39 591.80 73.29
  Q 592.34 73.20 592.83 73.46
  L 595.93 75.11
  Q 596.11 75.20 596.30 75.17
  L 596.56 75.13
  Q 596.91 75.07 597.23 75.23
  L 603.77 78.62
  Q 604.24 78.86 604.76 78.74
  Q 605.62 78.53 606.04 79.30
  Q 606.31 79.79 606.87 79.69
  Q 607.35 79.60 607.70 79.93
  Q 608.04 80.25 608.45 80.44
  Q 612.03 82.12 615.55 84.02
  Q 615.98 84.25 616.44 84.35
  Q 616.89 84.45 617.13 84.87
  Q 617.42 85.37 617.93 85.63
  Q 620.24 86.82 622.47 87.87
  Q 623.44 88.33 624.06 89.21
  Q 624.40 89.69 624.98 89.63
  Q 625.75 89.56 626.17 90.25
  Q 626.41 90.63 626.85 90.57
  Q 627.46 90.49 627.85 91.01
  Q 628.06 91.27 628.33 91.46
  Q 630.41 92.93 632.45 94.27
  Q 633.26 94.81 633.90 95.40
  Q 634.45 95.91 635.17 96.02
  Q 635.60 96.09 635.89 96.41
  Q 636.68 97.26 637.88 97.95
  Q 640.15 99.24 642.59 101.28
  Q 643.66 102.17 644.82 102.83
  Q 645.89 103.44 646.75 104.64
  A 2.62 2.54 -3.8 0 0 647.66 105.41
  Q 649.99 106.60 651.93 108.96
  Q 652.36 109.47 653.00 109.47
  Q 653.53 109.47 653.89 109.85
  L 659.15 115.26
  Q 659.54 115.67 660.11 115.73
  L 660.40 115.76
  Q 660.66 115.78 660.85 115.97
  Q 668.09 123.27 675.22 130.31
  Q 675.58 130.67 675.59 131.17
  Q 675.59 131.67 675.94 132.03
  Q 677.68 133.85 679.57 135.58
  Q 680.95 136.84 681.92 138.39
  Q 683.29 140.57 685.48 142.37
  Q 686.00 142.79 686.22 143.43
  Q 686.72 144.94 688.08 145.96
  Q 688.64 146.37 688.87 147.02
  C 689.44 148.59 690.85 149.54 691.81 150.97
  Q 696.01 157.24 700.21 163.50
  C 701.02 164.70 701.46 166.20 702.32 167.21
  Q 702.89 167.87 703.28 168.64
  Q 708.46 178.93 713.65 189.23
  C 714.54 191.01 714.45 192.91 715.87 194.51
  Q 716.27 194.97 716.17 195.59
  Q 716.05 196.23 716.43 196.77
  Q 717.77 198.74 718.07 200.85
  Q 718.13 201.34 718.49 201.68
  Q 719.21 202.38 718.88 203.34
  Q 718.73 203.77 719.10 204.04
  Z"
/>
<path fill="#1e252d" d="
  M 415.41 276.99
  Q 415.35 277.51 415.46 278.01
  Q 415.57 278.52 415.31 278.96
  Q 415.20 279.16 415.00 279.27
  Q 414.60 279.49 414.59 279.95
  Q 414.36 290.67 414.80 298.10
  Q 416.28 323.07 426.78 347.89
  Q 427.19 348.84 427.26 349.87
  A 0.96 0.88 -64.3 0 0 427.35 350.17
  L 440.00 374.53
  Q 440.27 375.04 440.75 375.35
  Q 441.66 375.92 441.79 376.92
  Q 441.88 377.64 442.52 378.00
  Q 443.46 378.52 443.47 379.55
  Q 443.49 380.21 444.07 380.53
  Q 445.09 381.10 445.24 382.17
  A 1.73 1.73 0.0 0 0 445.91 383.28
  Q 447.46 384.43 448.20 386.13
  Q 448.44 386.68 448.89 387.07
  Q 449.68 387.77 450.01 388.77
  Q 450.18 389.28 450.55 389.65
  L 453.08 392.18
  Q 453.42 392.52 453.46 393.00
  Q 453.56 394.28 454.94 394.81
  Q 455.07 394.86 455.11 395.01
  Q 455.42 396.20 455.13 397.54
  A 0.05 0.04 18.9 0 1 455.06 397.57
  L 449.38 394.56
  Q 448.90 394.30 448.55 393.90
  C 447.71 392.94 446.82 392.98 445.85 392.21
  Q 443.99 390.73 441.92 389.54
  C 440.34 388.63 439.28 386.86 437.74 386.56
  Q 437.12 386.44 436.75 385.93
  Q 435.56 384.31 434.04 383.38
  C 431.00 381.52 428.86 377.70 425.70 376.46
  Q 425.41 376.34 425.19 376.11
  Q 422.63 373.40 419.89 370.78
  C 419.05 369.97 419.12 369.07 418.34 368.32
  Q 416.73 366.76 415.15 365.12
  Q 414.10 364.04 412.22 361.57
  C 410.96 359.92 409.40 358.34 408.25 356.85
  Q 399.69 345.76 393.79 335.01
  Q 390.38 328.79 386.34 320.21
  Q 385.79 319.04 385.48 317.86
  Q 385.09 316.35 384.14 315.09
  Q 383.84 314.69 383.95 314.21
  Q 384.12 313.45 383.65 312.88
  Q 383.27 312.44 383.08 311.85
  Q 381.44 306.82 379.97 301.65
  Q 377.16 291.82 376.41 281.85
  Q 376.37 281.34 376.06 280.94
  L 375.85 280.67
  A 0.34 0.32 27.4 0 1 375.78 280.47
  Q 375.75 266.10 375.77 252.34
  C 375.77 251.75 376.26 251.26 376.33 250.58
  Q 378.13 233.76 382.68 220.29
  Q 382.95 219.50 383.02 218.63
  Q 383.06 218.09 383.45 217.72
  Q 384.10 217.10 383.88 216.19
  A 0.97 0.94 -34.5 0 1 384.04 215.41
  Q 385.15 213.89 385.60 212.11
  Q 385.99 210.54 386.83 209.06
  Q 387.69 207.54 388.18 206.00
  Q 388.69 204.40 389.42 202.96
  Q 391.25 199.33 393.21 195.56
  Q 393.41 195.17 393.76 194.88
  Q 394.47 194.28 394.82 193.31
  Q 395.38 191.74 396.20 190.60
  Q 397.10 189.37 397.78 188.10
  Q 399.54 184.79 402.03 181.97
  Q 402.66 181.26 403.04 180.43
  C 403.62 179.15 405.31 178.52 405.51 177.12
  A 1.55 1.55 0.0 0 1 405.95 176.23
  L 409.61 172.61
  Q 409.91 172.31 409.98 171.89
  Q 410.01 171.75 410.03 171.61
  Q 410.06 171.33 410.27 171.12
  Q 415.57 165.76 420.78 160.57
  Q 422.49 158.86 424.15 157.75
  Q 426.09 156.46 427.71 154.38
  Q 428.05 153.96 428.58 153.83
  Q 430.17 153.45 431.23 151.94
  A 2.42 2.38 6.7 0 1 432.30 151.11
  Q 433.89 150.49 434.93 149.09
  A 1.89 1.86 -79.1 0 1 435.95 148.39
  Q 437.02 148.11 437.70 147.23
  Q 438.06 146.77 438.60 146.57
  C 441.06 145.68 442.73 143.91 445.13 143.02
  C 446.26 142.60 446.68 141.70 447.73 141.17
  C 451.85 139.07 456.02 136.65 460.36 135.21
  Q 461.82 134.72 463.19 133.98
  Q 464.54 133.25 466.03 132.73
  Q 469.02 131.68 471.77 130.80
  Q 514.37 117.14 556.37 130.37
  Q 557.03 130.58 557.58 130.91
  Q 558.18 131.29 558.90 131.10
  Q 559.43 130.96 559.76 131.41
  Q 560.38 132.24 561.43 132.04
  Q 562.02 131.92 562.46 132.33
  C 563.34 133.13 564.20 132.79 565.20 133.27
  Q 566.30 133.80 567.38 134.53
  Q 567.80 134.82 568.31 134.78
  L 569.20 134.71
  Q 569.69 134.68 569.92 135.11
  Q 570.18 135.59 570.72 135.70
  Q 571.21 135.80 571.65 136.02
  Q 578.66 139.63 585.74 143.09
  Q 586.25 143.34 586.57 143.80
  Q 587.21 144.72 588.22 144.74
  A 0.98 0.98 0.0 0 1 589.03 145.17
  Q 589.41 145.71 590.06 145.71
  Q 590.54 145.71 590.82 146.09
  C 591.75 147.34 593.04 147.33 594.04 148.57
  Q 594.31 148.91 594.75 148.99
  Q 595.98 149.22 596.77 150.43
  Q 597.08 150.90 597.64 150.99
  L 598.20 151.07
  A 1.23 1.17 -11.8 0 1 599.02 151.58
  Q 599.93 152.89 601.29 153.60
  C 603.07 154.53 604.58 156.42 606.02 157.83
  Q 606.35 158.15 606.81 158.20
  Q 607.06 158.23 607.29 158.30
  Q 607.56 158.39 607.76 158.59
  Q 614.59 165.52 621.26 172.10
  Q 622.37 173.20 623.17 174.60
  Q 624.19 176.38 626.06 177.75
  A 1.77 1.77 0.0 0 1 626.65 178.54
  C 627.28 180.20 628.64 181.24 629.67 182.66
  Q 635.48 190.66 639.69 198.72
  Q 642.33 203.76 644.83 208.75
  Q 644.99 209.07 644.85 209.40
  Q 644.80 209.54 644.79 209.69
  Q 644.78 209.79 644.84 209.88
  Q 646.56 212.55 647.16 214.33
  Q 648.60 218.68 649.86 222.52
  Q 655.17 238.79 656.20 254.37
  C 657.39 272.19 655.66 290.44 649.80 307.25
  Q 648.91 309.80 648.14 312.23
  Q 648.04 312.54 647.86 312.80
  Q 647.45 313.38 647.51 314.12
  Q 647.55 314.59 647.33 315.00
  L 645.37 318.77
  Q 645.30 318.91 645.17 319.00
  L 644.94 319.16
  Q 644.78 319.28 644.83 319.46
  Q 645.05 320.46 644.57 321.35
  Q 642.91 324.44 641.32 327.69
  Q 640.72 328.91 639.85 330.03
  Q 639.27 330.77 638.87 331.67
  Q 638.42 332.69 637.83 333.65
  Q 632.49 342.40 626.67 349.28
  Q 625.87 350.23 625.21 351.24
  Q 624.41 352.44 623.40 353.46
  Q 618.38 358.49 613.00 363.87
  Q 611.66 365.21 610.16 366.17
  C 608.70 367.09 607.58 368.45 606.11 369.52
  Q 601.71 372.72 597.32 375.96
  Q 596.51 376.56 595.60 376.92
  Q 594.85 377.21 594.40 377.89
  A 1.65 1.63 -82.5 0 1 593.56 378.54
  Q 591.89 379.10 590.80 379.92
  A 19.66 18.41 11.1 0 1 587.90 381.73
  Q 580.87 385.28 574.07 388.57
  Q 572.84 389.16 571.40 389.60
  Q 569.88 390.08 568.68 390.95
  Q 568.26 391.25 567.76 391.20
  Q 567.51 391.18 567.25 391.19
  Q 567.00 391.20 566.78 391.31
  Q 564.22 392.51 561.37 393.07
  A 0.77 0.75 -81.0 0 0 560.86 393.45
  Q 560.73 393.67 560.52 393.78
  Q 560.02 394.05 559.47 393.90
  Q 558.44 393.63 557.87 394.51
  Q 557.56 395.00 557.00 394.85
  Q 555.94 394.57 555.20 395.41
  Q 554.80 395.86 554.21 395.73
  Q 552.80 395.43 551.77 396.29
  Q 551.24 396.72 550.57 396.59
  Q 549.07 396.28 547.98 397.15
  Q 547.56 397.49 547.02 397.49
  L 541.98 397.50
  Q 541.40 397.50 541.02 397.06
  Q 540.56 396.53 539.86 396.58
  Q 539.23 396.63 538.64 396.37
  Q 536.40 395.39 534.25 393.90
  Q 531.73 392.15 527.14 390.18
  Q 526.61 389.96 526.28 389.48
  Q 525.88 388.90 525.24 388.66
  Q 523.67 388.09 522.24 387.12
  Q 520.28 385.81 519.40 385.38
  Q 515.88 383.69 512.65 381.34
  Q 511.37 380.40 509.92 379.67
  Q 508.58 379.00 507.20 378.07
  Q 504.64 376.35 502.02 374.68
  Q 487.98 365.68 476.07 356.38
  Q 473.75 354.57 471.59 352.83
  Q 469.84 351.42 468.06 350.04
  Q 466.34 348.71 464.59 346.82
  C 463.80 345.96 462.72 345.92 461.88 345.03
  Q 459.45 342.49 456.77 339.92
  Q 456.55 339.70 456.23 339.68
  L 455.94 339.67
  Q 455.60 339.65 455.36 339.41
  L 443.95 328.01
  Q 443.57 327.63 443.51 327.09
  Q 443.45 326.58 443.10 326.25
  Q 441.37 324.61 439.92 322.84
  Q 429.49 310.13 422.91 294.77
  Q 421.25 290.89 420.03 286.85
  Q 419.77 285.95 419.33 285.18
  Q 418.95 284.51 419.04 283.78
  Q 419.11 283.22 418.68 282.85
  Q 417.86 282.15 418.20 281.07
  A 0.74 0.73 -65.7 0 0 417.88 280.21
  Q 416.94 279.65 417.25 278.54
  Q 417.41 278.01 417.10 277.55
  Q 416.72 276.99 416.13 276.64
  Q 415.50 276.27 415.41 276.99
  Z
  M 547.38 175.94
  Q 546.83 175.27 545.91 175.33
  A 1.89 1.88 -30.2 0 1 544.72 175.02
  Q 543.62 174.28 542.26 174.47
  Q 541.75 174.54 541.34 174.23
  Q 540.15 173.35 538.58 173.51
  Q 538.01 173.57 537.55 173.24
  Q 536.53 172.51 535.26 172.73
  Q 534.74 172.82 534.27 172.58
  Q 534.01 172.46 533.85 172.22
  Q 533.49 171.74 532.89 171.74
  Q 530.74 171.77 528.69 171.77
  C 527.53 171.78 527.08 170.84 525.81 170.85
  Q 516.16 170.85 506.91 170.87
  Q 506.46 170.87 506.10 171.15
  L 505.80 171.38
  Q 505.35 171.73 504.77 171.74
  C 503.02 171.74 500.90 171.56 499.29 172.29
  C 497.80 172.97 496.30 172.57 494.60 173.22
  Q 493.12 173.79 491.50 174.16
  Q 487.03 175.17 483.51 176.97
  Q 483.06 177.20 482.57 177.26
  Q 481.84 177.36 481.13 177.72
  Q 475.94 180.35 471.21 182.73
  C 470.24 183.21 469.86 184.18 468.85 184.32
  Q 468.18 184.41 467.79 184.95
  Q 467.04 185.95 465.92 186.27
  Q 465.26 186.46 464.79 186.96
  Q 463.90 187.92 462.62 188.43
  A 2.18 2.15 6.5 0 0 461.61 189.22
  Q 460.56 190.73 459.09 191.48
  Q 457.86 192.10 456.82 193.12
  Q 453.37 196.50 450.52 199.58
  C 449.69 200.47 449.67 201.58 448.61 202.33
  Q 446.91 203.55 446.16 205.30
  Q 445.99 205.70 445.69 206.02
  Q 444.23 207.62 442.90 209.59
  Q 439.14 215.15 436.98 219.86
  Q 421.33 253.95 433.98 289.89
  Q 436.29 296.44 441.18 304.97
  C 441.72 305.90 442.51 306.36 442.66 307.45
  Q 442.73 308.01 443.19 308.35
  L 443.74 308.77
  Q 444.19 309.10 444.29 309.64
  Q 444.51 310.74 445.37 311.42
  Q 445.73 311.70 445.91 312.13
  Q 446.75 314.09 448.82 315.60
  Q 449.64 316.20 449.78 317.15
  Q 449.85 317.64 450.20 317.99
  Q 454.64 322.51 459.06 326.89
  Q 460.47 328.28 461.99 329.22
  Q 463.63 330.23 464.92 331.92
  Q 465.38 332.54 466.15 332.48
  Q 466.72 332.43 467.02 332.91
  Q 467.56 333.78 468.47 334.15
  Q 469.28 334.47 469.97 335.01
  Q 472.78 337.22 476.00 338.80
  Q 481.14 341.34 486.33 344.00
  Q 486.78 344.23 487.28 344.19
  Q 487.79 344.14 488.24 344.43
  Q 488.64 344.68 489.09 344.84
  Q 512.37 353.22 537.60 348.83
  Q 539.02 348.58 540.43 348.07
  Q 541.63 347.63 542.93 347.82
  Q 543.87 347.96 544.59 347.33
  Q 545.04 346.94 545.65 346.99
  Q 546.62 347.08 547.30 346.45
  A 1.50 1.47 -67.5 0 1 548.27 346.04
  L 549.21 346.01
  Q 549.71 346.00 550.02 345.61
  Q 550.64 344.86 551.66 345.06
  Q 552.22 345.17 552.66 344.79
  Q 553.71 343.90 555.01 343.56
  Q 556.30 343.23 557.46 342.68
  Q 561.51 340.74 565.45 338.82
  C 566.58 338.27 567.03 337.13 568.28 336.95
  Q 568.81 336.88 569.12 336.44
  Q 569.94 335.29 571.22 335.00
  Q 571.68 334.89 571.95 334.51
  Q 572.43 333.82 573.17 333.52
  C 574.75 332.89 576.02 331.32 577.14 330.09
  Q 577.34 329.86 577.64 329.78
  Q 577.80 329.74 577.97 329.74
  Q 578.51 329.75 578.89 329.36
  Q 582.45 325.69 586.08 322.15
  Q 587.40 320.85 588.27 319.36
  Q 589.16 317.84 590.78 316.66
  Q 591.34 316.25 591.49 315.58
  Q 591.84 314.09 593.31 313.10
  Q 593.92 312.69 594.11 311.98
  Q 594.38 310.89 595.25 310.21
  Q 595.56 309.97 595.74 309.63
  L 597.89 305.46
  Q 598.02 305.22 598.04 304.95
  Q 598.07 304.55 598.44 304.39
  Q 598.92 304.17 599.18 303.72
  Q 600.07 302.17 600.53 300.59
  Q 601.29 297.95 603.01 295.21
  Q 603.35 294.68 603.22 294.06
  Q 603.01 293.09 603.89 292.58
  Q 604.42 292.28 604.21 291.71
  Q 603.83 290.64 604.67 290.07
  Q 605.11 289.78 605.08 289.26
  L 605.02 288.32
  Q 604.99 287.81 605.37 287.48
  Q 606.29 286.67 606.01 285.44
  Q 605.84 284.72 606.24 284.10
  Q 607.34 282.37 606.86 280.02
  A 0.44 0.43 66.9 0 1 607.03 279.59
  Q 607.15 279.50 607.25 279.40
  Q 607.46 279.17 607.50 278.86
  Q 613.62 238.90 590.19 207.23
  C 589.03 205.68 587.47 204.53 586.48 202.97
  Q 585.43 201.33 583.97 199.86
  C 582.20 198.07 579.11 194.21 576.89 193.32
  C 575.34 192.71 574.44 190.95 572.90 190.05
  Q 571.24 189.08 569.96 187.64
  Q 569.58 187.22 569.02 187.17
  C 567.78 187.04 567.51 185.56 566.17 185.25
  A 1.67 1.66 72.8 0 1 565.40 184.84
  Q 564.12 183.68 562.03 182.68
  Q 556.77 180.17 551.42 177.35
  Q 550.93 177.09 550.39 177.19
  Q 549.46 177.37 548.93 176.59
  Q 548.73 176.29 548.38 176.20
  Q 548.18 176.15 547.98 176.18
  Q 547.61 176.22 547.38 175.94
  Z"
/>
<path fill="#1e252d" d="
  M 659.28 453.48
  Q 659.15 453.06 659.17 452.63
  Q 659.21 452.02 659.71 451.66
  Q 660.37 451.20 660.20 450.45
  Q 660.09 449.92 660.34 449.44
  L 662.29 445.75
  Q 662.54 445.28 662.92 444.92
  Q 663.66 444.23 663.99 443.26
  Q 664.16 442.76 664.53 442.38
  L 669.06 437.79
  A 2.00 1.95 -74.9 0 1 669.96 437.26
  Q 671.00 436.98 671.73 436.15
  Q 672.09 435.75 672.57 435.51
  L 675.70 433.96
  Q 676.21 433.72 676.77 433.66
  Q 677.65 433.57 678.29 433.00
  Q 678.76 432.59 679.37 432.72
  Q 680.93 433.07 682.04 432.14
  Q 682.46 431.80 683.00 431.80
  L 691.75 431.81
  Q 692.26 431.81 692.63 432.16
  Q 693.59 433.09 695.03 432.71
  A 1.16 1.16 0.0 0 1 696.25 433.15
  Q 696.72 433.78 697.48 433.61
  Q 697.99 433.50 698.44 433.73
  Q 701.12 435.10 703.99 436.46
  C 704.95 436.91 705.63 438.31 706.98 438.95
  Q 709.24 440.01 710.51 442.19
  C 711.50 443.90 712.71 444.90 713.66 446.57
  Q 716.66 451.86 717.58 455.75
  C 718.58 460.02 718.39 466.80 717.15 471.27
  Q 714.90 479.37 708.50 485.09
  Q 707.71 485.79 706.82 486.13
  C 705.87 486.49 705.55 487.29 704.60 487.75
  Q 701.97 489.02 699.43 490.34
  Q 698.96 490.59 698.44 490.49
  Q 697.12 490.26 696.15 491.02
  A 1.99 1.96 28.6 0 1 694.74 491.42
  Q 691.91 491.10 689.35 491.83
  Q 688.80 491.98 688.26 491.80
  C 686.04 491.04 683.97 491.67 681.72 490.94
  Q 678.39 489.87 675.50 488.77
  A 2.39 2.33 79.4 0 1 674.56 488.11
  Q 673.84 487.27 672.77 486.95
  A 2.08 2.02 -10.7 0 1 671.82 486.32
  Q 671.03 485.37 669.87 484.99
  Q 669.39 484.83 669.03 484.47
  L 665.15 480.56
  Q 664.81 480.22 664.71 479.74
  Q 664.54 478.86 663.90 478.28
  Q 663.33 477.77 662.98 477.09
  L 659.50 470.36
  A 1.98 1.92 34.3 0 1 659.29 469.33
  Q 659.41 467.89 658.70 466.79
  A 2.00 2.00 0.0 0 1 658.38 465.74
  Q 658.23 460.17 658.34 455.01
  Q 658.35 454.57 658.80 454.41
  A 0.76 0.75 -18.1 0 0 659.28 453.48
  Z"
/>
<path fill="#1e252d" d="
  M 608.29 544.71
  C 603.77 551.97 592.68 552.69 585.10 550.47
  C 572.89 546.90 568.87 535.36 568.96 523.45
  C 569.07 509.76 576.57 499.14 590.88 497.85
  C 601.00 496.95 610.90 500.96 614.34 511.15
  Q 614.40 511.33 614.22 511.36
  L 606.53 512.67
  Q 606.31 512.71 606.24 512.49
  C 604.15 506.19 598.00 504.56 591.90 505.02
  C 577.30 506.13 575.51 522.51 578.85 533.11
  Q 582.68 545.24 596.31 544.06
  C 601.76 543.58 609.31 540.34 608.78 533.67
  Q 608.65 532.00 608.79 530.35
  Q 608.84 529.74 608.23 529.74
  L 596.50 529.75
  Q 596.01 529.75 596.00 529.25
  L 596.00 523.50
  Q 596.00 523.00 596.50 523.00
  L 615.62 523.00
  Q 616.24 523.00 616.25 523.62
  L 616.55 550.47
  Q 616.56 551.00 616.03 551.00
  L 609.92 551.00
  A 0.38 0.38 0.0 0 1 609.54 550.66
  L 608.90 544.85
  Q 608.79 543.91 608.29 544.71
  Z"
/>
<path fill="#1e252d" d="
  M 395.00 533.18
  L 395.00 550.75
  Q 395.00 551.00 394.75 551.00
  L 387.25 551.00
  A 0.25 0.25 0.0 0 1 387.00 550.75
  L 387.00 498.98
  A 0.48 0.47 0.6 0 1 387.49 498.51
  Q 390.76 498.57 394.21 498.40
  Q 400.08 498.12 406.94 498.23
  Q 414.58 498.36 418.50 500.40
  Q 426.16 504.40 427.36 512.86
  C 429.10 525.11 420.95 531.92 409.43 532.36
  Q 402.92 532.61 395.77 532.43
  Q 395.00 532.42 395.00 533.18
  Z
  M 394.98 506.38
  L 395.02 524.32
  A 0.34 0.34 0.0 0 0 395.36 524.66
  L 409.04 524.64
  A 9.74 8.33 -0.1 0 0 418.76 516.29
  L 418.76 514.33
  A 9.74 8.33 -0.1 0 0 409.00 506.02
  L 395.32 506.04
  A 0.34 0.34 0.0 0 0 394.98 506.38
  Z"
/>
<path fill="#1e252d" d="
  M 275.05 520.26
  L 295.68 520.26
  A 0.31 0.31 0.0 0 1 295.99 520.57
  L 296.01 527.69
  A 0.31 0.31 0.0 0 1 295.70 528.00
  L 275.05 528.00
  A 0.31 0.31 0.0 0 0 274.74 528.31
  L 274.74 543.44
  A 0.31 0.31 0.0 0 0 275.05 543.75
  L 301.95 543.74
  A 0.31 0.31 0.0 0 1 302.26 544.05
  L 302.26 550.69
  A 0.31 0.31 0.0 0 1 301.95 551.00
  L 267.31 551.00
  A 0.31 0.31 0.0 0 1 267.00 550.69
  L 267.00 499.05
  A 0.31 0.31 0.0 0 1 267.31 498.74
  L 301.95 498.74
  A 0.31 0.31 0.0 0 1 302.26 499.05
  L 302.26 505.69
  A 0.31 0.31 0.0 0 1 301.95 506.00
  L 275.04 506.00
  A 0.31 0.31 0.0 0 0 274.73 506.31
  L 274.74 519.95
  A 0.31 0.31 0.0 0 0 275.05 520.26
  Z"
/>
<path fill="#1e252d" d="
  M 360.37 517.27
  C 359.62 520.25 358.53 523.32 357.27 526.18
  Q 351.89 538.30 346.42 550.44
  Q 346.16 551.00 345.54 551.00
  L 342.77 550.99
  Q 342.23 550.99 342.01 550.51
  Q 336.00 537.15 330.55 524.75
  C 329.47 522.29 328.81 519.80 327.79 517.34
  Q 327.40 516.41 327.40 517.42
  C 327.38 519.34 327.85 521.28 327.75 523.18
  Q 327.00 537.51 326.19 550.78
  Q 326.18 551.00 325.96 551.00
  L 318.21 551.00
  Q 317.92 551.00 317.94 550.71
  L 321.03 499.34
  Q 321.07 498.75 321.66 498.75
  L 327.82 498.74
  Q 328.27 498.74 328.45 499.15
  L 344.14 534.77
  A 0.29 0.29 0.0 0 0 344.67 534.77
  L 359.86 499.31
  Q 360.10 498.74 360.73 498.74
  L 366.24 498.75
  Q 366.98 498.75 367.03 499.49
  L 370.89 550.77
  A 0.19 0.19 0.0 0 1 370.71 550.97
  Q 363.68 551.16 362.23 550.79
  Q 362.17 550.77 362.16 550.70
  Q 361.52 537.95 360.81 525.41
  C 360.65 522.64 361.29 520.07 360.81 517.28
  Q 360.62 516.24 360.37 517.27
  Z"
/>
<path fill="#1e252d" d="
  M 449.84 542.75
  L 474.67 542.74
  A 0.33 0.33 0.0 0 1 475.00 543.07
  L 475.00 550.67
  A 0.33 0.33 0.0 0 1 474.67 551.00
  L 441.33 551.00
  A 0.33 0.33 0.0 0 1 441.00 550.67
  L 441.00 499.07
  A 0.33 0.33 0.0 0 1 441.33 498.74
  L 449.09 498.76
  A 0.33 0.33 0.0 0 1 449.42 499.09
  L 449.51 542.42
  A 0.33 0.33 0.0 0 0 449.84 542.75
  Z"
/>
<path fill="#1e252d" d="
  M 498.05 543.75
  L 524.95 543.74
  A 0.31 0.31 0.0 0 1 525.26 544.05
  L 525.26 550.69
  A 0.31 0.31 0.0 0 1 524.95 551.00
  L 490.31 551.00
  A 0.31 0.31 0.0 0 1 490.00 550.69
  L 490.00 499.05
  A 0.31 0.31 0.0 0 1 490.31 498.74
  L 524.95 498.74
  A 0.31 0.31 0.0 0 1 525.26 499.05
  L 525.26 505.69
  A 0.31 0.31 0.0 0 1 524.95 506.00
  L 498.05 506.00
  A 0.31 0.31 0.0 0 0 497.74 506.31
  L 497.74 519.95
  A 0.31 0.31 0.0 0 0 498.05 520.26
  L 518.68 520.26
  A 0.31 0.31 0.0 0 1 518.99 520.57
  L 519.01 527.69
  A 0.31 0.31 0.0 0 1 518.70 528.00
  L 498.05 528.00
  A 0.31 0.31 0.0 0 0 497.74 528.31
  L 497.74 543.44
  A 0.31 0.31 0.0 0 0 498.05 543.75
  Z"
/>
<path fill="#1e252d" d="
  M 645.50 538.70
  L 640.73 550.78
  A 0.35 0.35 0.0 0 1 640.40 551.00
  L 632.42 551.00
  A 0.35 0.35 0.0 0 1 632.10 550.52
  L 652.37 498.97
  A 0.35 0.35 0.0 0 1 652.70 498.75
  L 659.44 498.75
  A 0.35 0.35 0.0 0 1 659.77 498.97
  L 679.95 550.52
  A 0.35 0.35 0.0 0 1 679.63 551.00
  L 671.00 551.00
  A 0.35 0.35 0.0 0 1 670.67 550.78
  L 665.95 538.70
  A 0.35 0.35 0.0 0 0 665.62 538.48
  L 645.83 538.48
  A 0.35 0.35 0.0 0 0 645.50 538.70
  Z
  M 648.20 530.82
  A 0.34 0.34 0.0 0 0 648.52 531.28
  L 663.15 531.25
  A 0.34 0.34 0.0 0 0 663.46 530.79
  L 656.12 511.37
  A 0.34 0.34 0.0 0 0 655.48 511.37
  L 648.20 530.82
  Z"
/>
<path fill="#1e252d" d="
  M 719.44 527.73
  C 729.24 531.90 728.57 542.42 733.86 549.98
  Q 734.57 551.00 733.33 551.00
  L 724.89 551.00
  Q 723.97 551.00 723.59 550.16
  C 721.23 545.03 721.10 539.34 717.39 534.85
  Q 712.39 528.80 703.16 528.99
  Q 702.48 529.00 702.48 529.68
  L 702.48 550.76
  A 0.24 0.23 0.0 0 1 702.24 550.99
  L 694.25 551.00
  Q 694.00 551.00 694.00 550.75
  L 694.00 499.29
  Q 694.00 498.81 694.48 498.80
  Q 703.60 498.68 711.99 498.73
  C 721.18 498.78 730.67 502.33 730.85 513.20
  Q 730.93 518.32 728.44 522.30
  C 726.42 525.56 723.23 526.57 719.52 527.13
  Q 718.43 527.30 719.44 527.73
  Z
  M 702.47 506.82
  L 702.47 521.80
  A 0.49 0.49 0.0 0 0 702.96 522.29
  L 713.80 522.29
  A 8.47 7.45 0.0 0 0 722.27 514.84
  L 722.27 513.78
  A 8.47 7.45 -0.0 0 0 713.80 506.33
  L 702.96 506.33
  A 0.49 0.49 0.0 0 0 702.47 506.82
  Z"
/>
<path fill="#1e252d" d="
  M 790.73 538.20
  C 787.13 547.73 777.02 550.79 767.33 550.94
  Q 758.53 551.07 749.52 550.98
  Q 749.00 550.98 749.00 550.46
  L 749.00 499.30
  Q 749.00 498.83 749.48 498.81
  Q 760.02 498.51 768.97 499.00
  Q 790.14 500.16 792.53 520.04
  Q 793.76 530.21 790.73 538.20
  Z
  M 757.26 506.89
  L 757.26 543.21
  A 0.34 0.34 0.0 0 0 757.60 543.55
  L 767.62 543.55
  A 16.36 15.82 0.0 0 0 783.98 527.73
  L 783.98 522.37
  A 16.36 15.82 -0.0 0 0 767.62 506.55
  L 757.60 506.55
  A 0.34 0.34 0.0 0 0 757.26 506.89
  Z"
/>
<path fill="#1e252d" d="
  M 816.05 520.26
  L 836.68 520.26
  A 0.31 0.31 0.0 0 1 836.99 520.57
  L 837.01 527.69
  A 0.31 0.31 0.0 0 1 836.70 528.00
  L 816.05 528.00
  A 0.31 0.31 0.0 0 0 815.74 528.31
  L 815.74 543.44
  A 0.31 0.31 0.0 0 0 816.05 543.75
  L 842.95 543.74
  A 0.31 0.31 0.0 0 1 843.26 544.05
  L 843.26 550.69
  A 0.31 0.31 0.0 0 1 842.95 551.00
  L 808.31 551.00
  A 0.31 0.31 0.0 0 1 808.00 550.69
  L 808.00 499.05
  A 0.31 0.31 0.0 0 1 808.31 498.74
  L 842.95 498.74
  A 0.31 0.31 0.0 0 1 843.26 499.05
  L 843.26 505.69
  A 0.31 0.31 0.0 0 1 842.95 506.00
  L 816.04 506.00
  A 0.31 0.31 0.0 0 0 815.73 506.31
  L 815.74 519.95
  A 0.31 0.31 0.0 0 0 816.05 520.26
  Z"
/>
<path fill="#1e252d" d="
  M 867.00 515.58
  L 867.36 550.66
  A 0.33 0.33 0.0 0 1 867.03 550.99
  L 859.33 551.01
  A 0.33 0.33 0.0 0 1 859.00 550.68
  L 859.00 499.07
  A 0.33 0.33 0.0 0 1 859.33 498.74
  L 865.26 498.74
  A 0.33 0.33 0.0 0 1 865.53 498.87
  L 891.41 533.44
  A 0.33 0.33 0.0 0 0 892.00 533.24
  L 892.02 499.12
  A 0.33 0.33 0.0 0 1 892.35 498.79
  L 899.93 498.73
  A 0.33 0.33 0.0 0 1 900.26 499.06
  L 900.26 550.67
  A 0.33 0.33 0.0 0 1 899.93 551.00
  L 894.04 550.99
  A 0.33 0.33 0.0 0 1 893.77 550.86
  L 867.60 515.38
  A 0.33 0.33 0.0 0 0 867.00 515.58
  Z"
/>
<path fill="#1e252d" d="
  M 239.26 507.00
  L 239.26 550.74
  Q 239.26 551.00 239.00 551.00
  L 230.76 550.99
  Q 230.52 550.99 230.52 550.76
  L 230.52 506.76
  A 0.51 0.50 -0.0 0 0 230.01 506.26
  L 215.25 506.25
  Q 215.00 506.25 215.00 506.00
  L 215.00 499.26
  A 0.25 0.25 0.0 0 1 215.25 499.01
  Q 234.75 498.99 254.22 499.01
  A 0.28 0.27 -0.0 0 1 254.50 499.28
  Q 254.50 499.29 254.47 506.03
  Q 254.47 506.25 254.24 506.25
  L 240.00 506.26
  Q 239.26 506.26 239.26 507.00
  Z"
/>
<path fill="#1e252d" d="
  M 262.73 572.11
  Q 268.78 574.24 267.89 581.27
  C 267.36 585.52 263.61 587.73 259.62 587.87
  Q 252.86 588.11 245.52 587.98
  Q 245.00 587.97 245.00 587.45
  L 245.00 558.05
  Q 245.00 557.50 245.54 557.50
  Q 250.90 557.51 257.24 557.52
  Q 265.33 557.53 266.18 564.80
  Q 266.73 569.50 262.69 571.64
  Q 262.17 571.91 262.73 572.11
  Z
  M 249.48 562.02
  L 249.46 569.58
  A 0.29 0.29 0.0 0 0 249.75 569.87
  L 257.34 569.88
  A 4.20 3.62 0.1 0 0 261.55 566.27
  L 261.55 565.37
  A 4.20 3.62 0.1 0 0 257.36 561.74
  L 249.77 561.73
  A 0.29 0.29 0.0 0 0 249.48 562.02
  Z
  M 249.48 574.83
  L 249.50 583.23
  A 0.32 0.32 0.0 0 0 249.82 583.55
  L 257.77 583.54
  A 5.39 4.22 -0.1 0 0 263.15 579.31
  L 263.15 578.71
  A 5.39 4.22 -0.1 0 0 257.75 574.50
  L 249.80 574.51
  A 0.32 0.32 0.0 0 0 249.48 574.83
  Z"
/>
<path fill="#1e252d" d="
  M 287.55 570.55
  L 294.48 557.69
  A 0.33 0.32 13.4 0 1 294.77 557.52
  L 299.80 557.54
  A 0.18 0.18 0.0 0 1 299.95 557.81
  L 289.74 575.50
  Q 289.47 575.96 289.47 576.49
  L 289.49 587.51
  Q 289.49 588.00 288.99 588.00
  L 285.20 588.00
  Q 284.75 588.00 284.75 587.55
  Q 284.69 582.79 284.79 577.65
  Q 284.83 575.75 283.91 574.17
  Q 279.08 565.94 274.38 557.71
  A 0.13 0.13 0.0 0 1 274.50 557.52
  L 279.81 557.53
  Q 280.02 557.53 280.11 557.71
  L 286.88 570.55
  A 0.38 0.38 0.0 0 0 287.55 570.55
  Z"
/>
<path fill="#1e252d" d="
  M 307.77 593.58
  C 305.24 578.25 311.30 563.40 327.88 560.54
  Q 332.87 559.68 337.89 560.49
  Q 352.20 562.80 356.95 575.51
  Q 360.36 584.66 358.25 593.78
  Q 354.36 610.60 338.26 613.48
  Q 333.90 614.27 327.99 613.48
  C 316.92 612.01 309.66 605.03 307.77 593.58
  Z
  M 316.35 581.95
  C 314.66 591.63 317.18 602.89 327.47 606.12
  Q 333.90 608.14 339.87 605.50
  C 352.63 599.87 353.68 578.66 343.04 570.40
  C 336.57 565.38 327.26 565.98 321.58 571.62
  Q 317.44 575.74 316.35 581.95
  Z"
/>
<path fill="#1e252d" d="
  M 630.85 593.89
  C 628.09 578.56 634.22 563.42 650.75 560.60
  Q 655.78 559.74 660.43 560.42
  C 676.57 562.75 683.67 576.37 681.67 591.67
  C 680.17 603.05 672.57 611.66 661.00 613.48
  Q 656.43 614.20 650.73 613.45
  C 639.89 612.00 632.85 605.06 630.85 593.89
  Z
  M 639.20 582.92
  C 637.89 592.13 640.36 602.54 649.81 605.89
  C 659.55 609.36 669.20 604.41 672.13 594.46
  C 675.10 584.38 671.99 570.76 660.71 567.69
  C 649.67 564.68 640.76 571.96 639.20 582.92
  Z"
/>
<path fill="#1e252d" d="
  M 771.48 573.49
  C 769.75 567.01 758.60 565.23 753.74 569.45
  C 748.61 573.90 751.97 579.14 757.23 580.91
  Q 763.30 582.96 769.18 584.89
  C 772.35 585.93 775.58 587.65 777.85 590.19
  C 781.80 594.59 782.68 602.46 778.87 607.16
  C 773.29 614.01 762.85 615.07 754.71 613.26
  Q 745.88 611.30 742.22 603.15
  Q 741.94 602.53 742.57 602.29
  L 748.87 599.83
  Q 749.56 599.56 749.86 600.25
  C 752.59 606.58 762.07 607.82 767.78 605.44
  C 772.06 603.66 774.43 598.64 770.59 594.99
  Q 768.36 592.87 765.00 591.88
  C 758.71 590.03 751.85 588.40 746.93 584.21
  C 740.91 579.09 741.99 569.22 747.52 564.42
  C 753.22 559.47 762.78 558.89 769.63 561.22
  Q 775.74 563.30 779.14 570.70
  Q 779.53 571.54 778.66 571.88
  L 772.85 574.18
  Q 771.78 574.60 771.48 573.49
  Z"
/>
<path fill="#1e252d" d="
  M 411.35 579.28
  C 410.61 582.27 409.54 585.33 408.27 588.17
  Q 403.07 599.82 397.85 611.57
  A 2.89 2.89 0.0 0 1 392.56 611.56
  Q 387.26 599.57 381.70 587.18
  C 380.69 584.92 380.03 582.60 379.20 580.30
  Q 378.18 577.47 378.45 580.47
  C 378.63 582.61 378.81 584.66 378.69 586.85
  Q 377.94 599.97 377.20 612.78
  A 0.23 0.23 0.0 0 1 376.97 613.00
  L 369.12 612.99
  Q 368.92 612.99 368.93 612.79
  L 372.03 561.34
  Q 372.07 560.75 372.66 560.75
  L 378.74 560.74
  A 0.83 0.82 77.7 0 1 379.49 561.23
  L 395.18 596.86
  A 0.25 0.24 -44.7 0 0 395.63 596.86
  L 410.86 561.31
  Q 411.10 560.73 411.73 560.74
  L 417.36 560.75
  Q 417.98 560.75 418.02 561.36
  L 421.89 612.80
  A 0.19 0.19 0.0 0 1 421.70 613.00
  L 413.44 612.98
  Q 413.18 612.97 413.16 612.71
  Q 412.53 599.97 411.81 587.40
  C 411.65 584.64 412.32 582.05 411.79 579.29
  Q 411.59 578.28 411.35 579.28
  Z"
/>
<path fill="#1e252d" d="
  M 447.50 600.70
  L 442.73 612.78
  A 0.35 0.35 0.0 0 1 442.40 613.00
  L 434.42 613.00
  A 0.35 0.35 0.0 0 1 434.10 612.52
  L 454.37 560.97
  A 0.35 0.35 0.0 0 1 454.70 560.75
  L 461.44 560.75
  A 0.35 0.35 0.0 0 1 461.77 560.97
  L 481.95 612.52
  A 0.35 0.35 0.0 0 1 481.63 613.00
  L 473.00 613.00
  A 0.35 0.35 0.0 0 1 472.67 612.78
  L 467.95 600.70
  A 0.35 0.35 0.0 0 0 467.62 600.48
  L 447.83 600.48
  A 0.35 0.35 0.0 0 0 447.50 600.70
  Z
  M 450.20 592.82
  A 0.34 0.34 0.0 0 0 450.52 593.28
  L 465.15 593.25
  A 0.34 0.34 0.0 0 0 465.46 592.79
  L 458.12 573.37
  A 0.34 0.34 0.0 0 0 457.48 573.37
  L 450.20 592.82
  Z"
/>
<path fill="#1e252d" d="
  M 517.43 589.69
  C 527.24 594.13 526.61 604.25 531.86 612.02
  Q 532.52 613.00 531.34 613.00
  L 522.95 613.00
  Q 521.90 613.00 521.48 612.04
  C 519.26 606.96 519.06 601.32 515.42 596.89
  Q 510.38 590.76 501.03 590.99
  Q 500.48 591.00 500.48 591.55
  L 500.48 612.75
  A 0.24 0.24 0.0 0 1 500.24 612.99
  L 492.25 613.00
  A 0.25 0.25 0.0 0 1 492.00 612.75
  L 492.00 561.29
  Q 492.00 560.74 492.55 560.74
  Q 501.17 560.74 509.96 560.75
  C 520.72 560.77 530.29 565.59 528.63 578.12
  Q 527.32 588.10 517.52 589.13
  Q 516.44 589.25 517.43 589.69
  Z
  M 500.47 568.92
  L 500.47 583.70
  A 0.59 0.59 0.0 0 0 501.06 584.29
  L 511.80 584.29
  A 8.47 7.45 0.0 0 0 520.27 576.84
  L 520.27 575.78
  A 8.47 7.45 -0.0 0 0 511.80 568.33
  L 501.06 568.33
  A 0.59 0.59 0.0 0 0 500.47 568.92
  Z"
/>
<path fill="#1e252d" d="
  M 609.35 579.26
  C 608.62 582.25 607.54 585.33 606.27 588.17
  Q 601.17 599.58 595.86 611.56
  A 2.90 2.90 0.0 0 1 590.55 611.55
  Q 584.83 598.59 579.27 585.94
  Q 577.90 582.83 577.27 580.55
  Q 576.31 577.06 576.46 580.67
  C 576.55 582.80 576.82 584.73 576.69 586.97
  Q 576.00 598.76 575.21 612.77
  A 0.25 0.24 -87.4 0 1 574.97 613.00
  L 567.21 613.00
  Q 566.92 613.00 566.94 612.71
  L 570.03 561.34
  Q 570.07 560.75 570.66 560.75
  L 576.82 560.74
  Q 577.27 560.74 577.45 561.15
  L 593.14 596.77
  A 0.28 0.28 0.0 0 0 593.66 596.77
  L 608.86 561.31
  Q 609.10 560.73 609.73 560.74
  L 615.36 560.75
  Q 615.98 560.75 616.02 561.36
  L 619.89 612.80
  Q 619.90 613.00 619.70 613.00
  L 611.38 612.98
  Q 611.09 612.97 611.07 612.68
  L 609.63 579.28
  Q 609.58 578.27 609.35 579.26
  Z"
/>
<path fill="#1e252d" d="
  M 717.45 589.75
  C 727.20 593.83 726.56 604.39 731.84 611.92
  Q 732.60 613.00 731.28 613.00
  L 722.68 613.00
  Q 721.90 613.00 721.61 612.27
  C 720.79 610.18 719.87 608.03 719.42 605.84
  C 717.46 596.45 711.40 590.86 701.17 590.98
  Q 700.48 590.99 700.48 591.68
  L 700.48 612.76
  A 0.24 0.23 0.0 0 1 700.24 612.99
  L 692.25 613.00
  Q 692.00 613.00 692.00 612.75
  L 692.00 561.29
  Q 692.00 560.81 692.48 560.80
  Q 700.68 560.69 709.99 560.72
  C 716.06 560.74 722.72 562.13 726.38 567.32
  C 729.85 572.23 729.53 579.56 726.34 584.46
  C 724.27 587.64 721.15 588.53 717.51 589.17
  Q 716.48 589.35 717.45 589.75
  Z
  M 700.47 568.82
  L 700.47 583.80
  A 0.49 0.49 0.0 0 0 700.96 584.29
  L 711.80 584.29
  A 8.47 7.45 0.0 0 0 720.27 576.84
  L 720.27 575.78
  A 8.47 7.45 -0.0 0 0 711.80 568.33
  L 700.96 568.33
  A 0.49 0.49 0.0 0 0 700.47 568.82
  Z"
/>
<path fill="#1e252d" d="
  M 812.01 583.49
  A 0.39 0.39 0.0 0 0 812.69 583.49
  L 824.92 560.93
  Q 825.03 560.73 825.25 560.73
  L 834.36 560.76
  Q 834.51 560.76 834.43 560.89
  L 816.74 591.51
  Q 816.48 591.97 816.48 592.50
  L 816.48 613.01
  Q 816.48 613.26 816.24 613.26
  L 808.55 613.25
  Q 808.27 613.25 808.27 612.98
  Q 808.22 604.01 808.29 593.98
  Q 808.31 592.09 807.24 590.26
  Q 798.61 575.49 790.26 560.87
  Q 790.20 560.76 790.33 560.75
  L 799.75 560.74
  Q 800.06 560.74 800.20 561.02
  L 812.01 583.49
  Z"
/>
</svg>
