<?xml version="1.0" encoding="UTF-8" standalone="no"?>
<!DOCTYPE svg PUBLIC "-//W3C//DTD SVG 1.1//EN" "http://www.w3.org/Graphics/SVG/1.1/DTD/svg11.dtd">
<svg xmlns="http://www.w3.org/2000/svg" version="1.1" viewBox="0.00 0.00 250.00 150.00">
<g stroke-width="2.00" fill="none" stroke-linecap="butt">
<path stroke="#8f9296" vector-effect="non-scaling-stroke" d="
  M 96.9951 18.7436
  A 10.27 9.88 22.4 0 0 91.2650 5.6955
  A 10.27 9.88 22.4 0 0 78.0049 10.9164
  A 10.27 9.88 22.4 0 0 83.7350 23.9645
  A 10.27 9.88 22.4 0 0 96.9951 18.7436"
/>
<path stroke="#8f9296" vector-effect="non-scaling-stroke" d="
  M 178.0569 29.8127
  A 10.37 9.81 32.9 0 0 174.6785 15.9433
  A 10.37 9.81 32.9 0 0 160.6431 18.5473
  A 10.37 9.81 32.9 0 0 164.0215 32.4167
  A 10.37 9.81 32.9 0 0 178.0569 29.8127"
/>
<path stroke="#8f9296" vector-effect="non-scaling-stroke" d="
  M 140.70 35.52
  Q 157.86 42.76 164.94 59.66
  C 174.21 81.79 163.06 105.94 140.76 114.35
  Q 139.41 114.86 140.73 115.44
  Q 147.47 118.40 154.66 120.72
  A 1.42 1.39 37.0 0 0 155.82 120.57
  C 183.87 102.80 187.54 64.38 165.97 40.05
  Q 148.88 20.77 122.58 19.85
  C 102.25 19.13 81.85 30.40 72.16 47.96
  C 62.20 66.02 63.26 87.84 74.16 105.06
  Q 88.69 128.02 116.81 132.20
  Q 124.35 133.33 132.14 132.12
  Q 132.78 132.03 132.21 131.73
  Q 124.07 127.48 117.42 121.18
  Q 116.61 120.42 115.48 120.05
  Q 114.42 119.71 113.35 119.42
  Q 90.26 113.14 81.07 92.57
  Q 74.05 76.83 79.50 60.48
  C 82.65 51.01 90.15 42.00 98.79 37.45
  Q 119.47 26.56 140.70 35.52"
/>
<path stroke="#8f9296" vector-effect="non-scaling-stroke" d="
  M 95.74 79.06
  Q 96.00 75.76 96.92 78.95
  Q 99.09 86.51 104.87 92.32
  Q 113.43 100.91 128.33 109.06
  C 129.05 109.45 129.99 109.84 130.80 109.66
  C 145.24 106.51 156.91 95.74 159.49 81.00
  C 163.11 60.34 148.96 41.32 128.65 37.79
  C 109.84 34.53 91.45 46.45 86.79 65.04
  Q 81.91 84.50 95.72 100.69
  Q 100.06 105.78 105.55 109.10
  Q 107.31 110.17 106.01 108.57
  C 99.68 100.77 94.93 89.29 95.74 79.06"
/>
<path stroke="#8f9296" vector-effect="non-scaling-stroke" d="
  M 174.6384 132.1271
  A 8.01 7.73 41.4 0 0 173.7419 121.0316
  A 8.01 7.73 41.4 0 0 162.6216 121.5329
  A 8.01 7.73 41.4 0 0 163.5181 132.6284
  A 8.01 7.73 41.4 0 0 174.6384 132.1271"
/>
<path stroke="#8f9296" vector-effect="non-scaling-stroke" d="
  M 142.7347 88.2204
  A 24.29 23.69 37.6 0 0 137.9443 54.6307
  A 24.29 23.69 37.6 0 0 104.2453 58.5796
  A 24.29 23.69 37.6 0 0 109.0357 92.1693
  A 24.29 23.69 37.6 0 0 142.7347 88.2204"
/>
</g>
<path fill="#1e252d" d="
  M 0.00 0.00
  L 250.00 0.00
  L 250.00 150.00
  L 0.00 150.00
  L 0.00 0.00
  Z
  M 96.9951 18.7436
  A 10.27 9.88 22.4 0 0 91.2650 5.6955
  A 10.27 9.88 22.4 0 0 78.0049 10.9164
  A 10.27 9.88 22.4 0 0 83.7350 23.9645
  A 10.27 9.88 22.4 0 0 96.9951 18.7436
  Z
  M 178.0569 29.8127
  A 10.37 9.81 32.9 0 0 174.6785 15.9433
  A 10.37 9.81 32.9 0 0 160.6431 18.5473
  A 10.37 9.81 32.9 0 0 164.0215 32.4167
  A 10.37 9.81 32.9 0 0 178.0569 29.8127
  Z
  M 140.70 35.52
  Q 157.86 42.76 164.94 59.66
  C 174.21 81.79 163.06 105.94 140.76 114.35
  Q 139.41 114.86 140.73 115.44
  Q 147.47 118.40 154.66 120.72
  A 1.42 1.39 37.0 0 0 155.82 120.57
  C 183.87 102.80 187.54 64.38 165.97 40.05
  Q 148.88 20.77 122.58 19.85
  C 102.25 19.13 81.85 30.40 72.16 47.96
  C 62.20 66.02 63.26 87.84 74.16 105.06
  Q 88.69 128.02 116.81 132.20
  Q 124.35 133.33 132.14 132.12
  Q 132.78 132.03 132.21 131.73
  Q 124.07 127.48 117.42 121.18
  Q 116.61 120.42 115.48 120.05
  Q 114.42 119.71 113.35 119.42
  Q 90.26 113.14 81.07 92.57
  Q 74.05 76.83 79.50 60.48
  C 82.65 51.01 90.15 42.00 98.79 37.45
  Q 119.47 26.56 140.70 35.52
  Z
  M 95.74 79.06
  Q 96.00 75.76 96.92 78.95
  Q 99.09 86.51 104.87 92.32
  Q 113.43 100.91 128.33 109.06
  C 129.05 109.45 129.99 109.84 130.80 109.66
  C 145.24 106.51 156.91 95.74 159.49 81.00
  C 163.11 60.34 148.96 41.32 128.65 37.79
  C 109.84 34.53 91.45 46.45 86.79 65.04
  Q 81.91 84.50 95.72 100.69
  Q 100.06 105.78 105.55 109.10
  Q 107.31 110.17 106.01 108.57
  C 99.68 100.77 94.93 89.29 95.74 79.06
  Z
  M 174.6384 132.1271
  A 8.01 7.73 41.4 0 0 173.7419 121.0316
  A 8.01 7.73 41.4 0 0 162.6216 121.5329
  A 8.01 7.73 41.4 0 0 163.5181 132.6284
  A 8.01 7.73 41.4 0 0 174.6384 132.1271
  Z"
/>
<ellipse fill="#ffffff" cx="0.00" cy="0.00" transform="translate(87.50,14.83) rotate(22.4)" rx="10.27" ry="9.88"/>
<ellipse fill="#ffffff" cx="0.00" cy="0.00" transform="translate(169.35,24.18) rotate(32.9)" rx="10.37" ry="9.81"/>
<path fill="#ffffff" d="
  M 140.70 35.52
  Q 119.47 26.56 98.79 37.45
  C 90.15 42.00 82.65 51.01 79.50 60.48
  Q 74.05 76.83 81.07 92.57
  Q 90.26 113.14 113.35 119.42
  Q 114.42 119.71 115.48 120.05
  Q 116.61 120.42 117.42 121.18
  Q 124.07 127.48 132.21 131.73
  Q 132.78 132.03 132.14 132.12
  Q 124.35 133.33 116.81 132.20
  Q 88.69 128.02 74.16 105.06
  C 63.26 87.84 62.20 66.02 72.16 47.96
  C 81.85 30.40 102.25 19.13 122.58 19.85
  Q 148.88 20.77 165.97 40.05
  C 187.54 64.38 183.87 102.80 155.82 120.57
  A 1.42 1.39 37.0 0 1 154.66 120.72
  Q 147.47 118.40 140.73 115.44
  Q 139.41 114.86 140.76 114.35
  C 163.06 105.94 174.21 81.79 164.94 59.66
  Q 157.86 42.76 140.70 35.52
  Z"
/>
<path fill="#ffffff" d="
  M 95.74 79.06
  C 94.93 89.29 99.68 100.77 106.01 108.57
  Q 107.31 110.17 105.55 109.10
  Q 100.06 105.78 95.72 100.69
  Q 81.91 84.50 86.79 65.04
  C 91.45 46.45 109.84 34.53 128.65 37.79
  C 148.96 41.32 163.11 60.34 159.49 81.00
  C 156.91 95.74 145.24 106.51 130.80 109.66
  C 129.99 109.84 129.05 109.45 128.33 109.06
  Q 113.43 100.91 104.87 92.32
  Q 99.09 86.51 96.92 78.95
  Q 96.00 75.76 95.74 79.06
  Z
  M 142.7347 88.2204
  A 24.29 23.69 37.6 0 0 137.9443 54.6307
  A 24.29 23.69 37.6 0 0 104.2453 58.5796
  A 24.29 23.69 37.6 0 0 109.0357 92.1693
  A 24.29 23.69 37.6 0 0 142.7347 88.2204
  Z"
/>
<ellipse fill="#1e252d" cx="0.00" cy="0.00" transform="translate(123.49,73.40) rotate(37.6)" rx="24.29" ry="23.69"/>
<ellipse fill="#ffffff" cx="0.00" cy="0.00" transform="translate(168.63,126.83) rotate(41.4)" rx="8.01" ry="7.73"/>
</svg>
